<svg width="24" height="24" viewBox="0 0 24 24" fill="none" xmlns="http://www.w3.org/2000/svg">
<path fill-rule="evenodd" clip-rule="evenodd" d="M6.94801 21.75C6.04953 21.7501 5.30031 21.7501 4.70553 21.6701C4.07773 21.5857 3.51093 21.4 3.05546 20.9446C2.59999 20.4891 2.41432 19.9223 2.32992 19.2945C2.24995 18.6997 2.24998 17.9505 2.25001 17.052L2.24991 10.9368C2.24907 10.1507 2.24841 9.52808 2.50963 8.97034C2.77086 8.41261 3.2496 8.01452 3.854 7.51195L8.1639 3.92046C8.94358 3.2707 9.58173 2.73889 10.1464 2.37571C10.7375 1.99554 11.3223 1.74951 12 1.74951C12.6777 1.74951 13.2625 1.99554 13.8536 2.37571C14.4183 2.73889 15.0564 3.27069 15.8361 3.92045L20.146 7.51194C20.7504 8.01452 21.2291 8.4126 21.4904 8.97034C21.7516 9.52807 21.7509 10.1507 21.7501 10.9367L21.75 17.052C21.75 17.9505 21.7501 18.6997 21.6701 19.2945C21.5857 19.9223 21.4 20.4891 20.9446 20.9446C20.4891 21.4 19.9223 21.5857 19.2945 21.6701C18.6997 21.7501 17.9505 21.7501 17.052 21.75H6.94801ZM9.08716 5.10365C9.91298 4.41546 10.4804 3.94438 10.9578 3.6373C11.4178 3.34148 11.7183 3.24951 12 3.24951C12.2817 3.24951 12.5822 3.34148 13.0422 3.6373C13.5196 3.94438 14.087 4.41546 14.9129 5.10365L19.0806 8.5768C19.8422 9.21142 20.0306 9.38999 20.132 9.60657C20.2334 9.82316 20.25 10.0822 20.25 11.0735V17C20.25 17.964 20.2484 18.6116 20.1835 19.0946C20.1214 19.5561 20.0142 19.7536 19.8839 19.8839C19.7536 20.0142 19.5561 20.1214 19.0946 20.1835C18.6116 20.2484 17.964 20.25 17 20.25H12.75V15C12.75 14.5858 12.4142 14.25 12 14.25C11.5858 14.25 11.25 14.5858 11.25 15V20.25H7.00001C6.036 20.25 5.38844 20.2484 4.9054 20.1835C4.44394 20.1214 4.24644 20.0142 4.11612 19.8839C3.98581 19.7536 3.87858 19.5561 3.81654 19.0946C3.7516 18.6116 3.75001 17.964 3.75001 17V11.0735C3.75001 10.0822 3.76658 9.82316 3.86802 9.60657C3.96946 9.38999 4.15786 9.21142 4.9194 8.5768L9.08716 5.10365Z" fill="black"/>
</svg>
