<svg width="25" height="18" viewBox="0 0 25 18" fill="none" xmlns="http://www.w3.org/2000/svg">
<path d="M0 16.2562C0 16.9437 0.557501 17.5 1.24375 17.5H11.2563C11.5861 17.5 11.9025 17.369 12.1357 17.1357C12.369 16.9025 12.5 16.5861 12.5 16.2562C12.5 15.9264 12.369 15.61 12.1357 15.3768C11.9025 15.1435 11.5861 15.0125 11.2563 15.0125H1.24375C0.556252 15.0125 0 15.5687 0 16.2562ZM0 8.75C0 9.4375 0.557501 9.99375 1.24375 9.99375H23.7563C24.0861 9.99375 24.4025 9.86271 24.6357 9.62946C24.869 9.39622 25 9.07986 25 8.75C25 8.42014 24.869 8.10378 24.6357 7.87054C24.4025 7.63729 24.0861 7.50625 23.7563 7.50625H1.24375C0.556252 7.50625 0 8.06375 0 8.75ZM1.24375 2.4875C0.913889 2.4875 0.597536 2.35646 0.364286 2.12321C0.131039 1.88997 0 1.57361 0 1.24375C0 0.913887 0.131039 0.597534 0.364286 0.364286C0.597536 0.131037 0.913889 9.83068e-09 1.24375 0H16.2563C16.4196 -4.86766e-09 16.5813 0.0321705 16.7322 0.0946748C16.8831 0.157179 17.0202 0.248793 17.1357 0.364286C17.2512 0.479779 17.3428 0.616889 17.4053 0.767788C17.4678 0.918686 17.5 1.08042 17.5 1.24375C17.5 1.40708 17.4678 1.56881 17.4053 1.71971C17.3428 1.87061 17.2512 2.00772 17.1357 2.12321C17.0202 2.23871 16.8831 2.33032 16.7322 2.39282C16.5813 2.45533 16.4196 2.4875 16.2563 2.4875H1.24375Z" fill="#CFB690"/>
</svg>
